<?xml version="1.0" standalone="no"?>
<!DOCTYPE svg PUBLIC "-//W3C//DTD SVG 20010904//EN"
 "http://www.w3.org/TR/2001/REC-SVG-20010904/DTD/svg10.dtd">
<svg version="1.0" xmlns="http://www.w3.org/2000/svg"
 width="1920.000000pt" height="1097.000000pt" viewBox="0 0 1920.000000 1097.000000"
 preserveAspectRatio="xMidYMid meet">

<g transform="translate(0.000000,1097.000000) scale(0.100000,-0.100000)"
fill="#000000" stroke="none">
<path d="M14606 5848 c155 -179 738 -807 745 -803 21 13 6 293 -27 524 l-7 44
124 -84 c68 -47 128 -95 134 -107 5 -12 20 -22 35 -24 14 -2 127 -73 253 -158
227 -155 227 -155 222 -187 -3 -19 1 -47 10 -69 8 -20 15 -47 15 -59 0 -12 8
-33 18 -46 10 -13 19 -44 21 -69 1 -24 9 -52 17 -61 12 -13 14 -91 14 -497 0
-367 -3 -487 -12 -502 -10 -16 -10 -24 0 -40 16 -27 17 -401 1 -417 -9 -9 -9
-19 0 -40 15 -36 11 -812 -4 -816 -5 -1 -11 10 -13 25 l-3 28 -220 0 -220 0
29 -42 c88 -129 113 -262 76 -403 -50 -194 -241 -345 -436 -345 l-58 0 0 54
c0 29 3 67 6 84 6 28 10 31 58 37 109 15 198 77 242 170 29 61 32 163 7 227
-38 100 -134 174 -237 185 l-53 6 -7 86 c-4 47 -14 112 -23 144 -13 49 -18 55
-31 45 -21 -18 -303 -18 -324 0 -14 11 -16 3 -22 -65 -4 -43 -9 -102 -13 -131
l-5 -52 -157 2 -156 3 -1 48 c-1 26 -4 50 -7 53 -11 11 -27 -8 -27 -32 0 -14
4 -22 10 -19 6 3 10 1 10 -4 0 -6 -4 -11 -10 -11 -5 0 -10 -9 -10 -20 0 -19
-7 -20 -145 -20 l-145 0 0 -390 c0 -377 1 -391 20 -410 19 -19 33 -20 325 -20
284 0 305 -1 305 -17 0 -18 -47 -52 -127 -92 -24 -12 -43 -23 -43 -26 0 -2 54
-4 121 -3 137 1 152 7 148 67 -4 76 -10 72 104 69 60 -2 102 -7 101 -13 0 -5
-38 -30 -82 -54 -45 -24 -82 -48 -82 -54 0 -6 25 -7 68 -2 37 4 92 6 123 5 70
-1 84 12 75 75 l-7 45 386 0 386 0 24 25 c24 23 25 31 25 135 0 86 3 110 14
110 10 0 15 -36 20 -162 4 -90 9 -164 11 -166 2 -2 8 -1 14 3 7 4 11 62 11
160 0 101 4 156 11 161 6 3 40 9 75 12 36 2 67 9 70 14 13 20 -13 26 -80 19
-46 -5 -69 -4 -72 4 -3 6 -3 88 -2 182 l3 172 39 -35 c21 -19 42 -34 47 -34
18 0 8 32 -17 55 -21 19 -24 27 -15 44 24 43 3 78 -40 69 -12 -3 -14 186 -16
1146 -3 1135 -2 1150 17 1168 15 14 20 32 20 67 0 30 5 53 14 61 8 6 16 23 18
36 3 23 35 3 440 -275 241 -166 442 -301 447 -301 17 0 19 28 3 43 -9 7 -96
67 -192 133 -96 65 -213 145 -260 177 -47 32 -160 110 -252 173 l-167 114 6
34 c7 46 -20 101 -62 120 -42 20 -66 20 -109 0 l-34 -17 -128 88 c-71 49 -172
118 -224 153 -52 36 -104 76 -115 89 -11 13 -28 25 -38 27 -9 1 -85 48 -167
104 -111 76 -153 111 -165 136 -15 30 -42 48 -80 51 -5 0 -15 3 -20 7 -44 28
-420 98 -523 98 l-65 0 19 -22z m1350 -3433 c33 -50 -20 -104 -71 -71 -27 18
-34 63 -13 84 21 21 66 14 84 -13z m221 -428 c-19 -43 -27 4 -27 168 0 130 3
174 13 178 9 3 13 -36 17 -162 3 -91 1 -174 -3 -184z m-762 299 c45 -19 75
-69 75 -125 0 -37 -6 -49 -39 -82 -34 -34 -44 -39 -82 -38 l-44 2 40 6 c77 13
115 54 115 124 0 61 -80 128 -132 111 -14 -4 -18 -2 -14 5 10 15 40 14 81 -3z
m-508 -134 c1 -57 -1 -78 -7 -62 -14 44 -11 152 4 150 1 0 2 -40 3 -88z m184
-96 c7 -17 29 -52 48 -77 28 -36 41 -67 60 -147 13 -56 22 -104 19 -107 -7 -8
-53 13 -113 50 l-50 32 2 179 c3 210 3 214 14 150 4 -27 13 -63 20 -80z"/>
<path d="M2912 5667 c-91 -33 -146 -115 -147 -217 0 -54 5 -73 28 -113 33 -55
99 -102 158 -112 29 -5 39 -11 39 -26 0 -18 -8 -19 -119 -19 -66 0 -126 -3
-135 -6 -13 -5 -16 -23 -16 -90 0 -81 -1 -85 -25 -94 -14 -5 -25 -14 -25 -20
0 -6 -32 -10 -80 -10 l-80 0 0 -60 0 -60 79 0 c61 0 80 -3 85 -15 3 -8 14 -15
25 -15 20 0 21 -7 23 -182 l3 -183 78 -3 77 -3 0 -49 c0 -82 -4 -80 139 -80
126 0 128 0 139 25 21 45 92 42 107 -5 6 -19 15 -20 135 -20 144 0 140 -2 140
80 l0 49 103 3 102 3 3 150 c2 159 8 196 23 158 7 -20 15 -23 69 -23 53 0 60
2 60 20 0 11 5 20 10 20 6 0 10 -4 10 -10 0 -14 64 -12 78 2 10 10 14 10 21 0
4 -7 105 -42 224 -76 l217 -63 0 273 c0 213 -3 274 -13 274 -29 0 -421 -121
-428 -132 -7 -10 -11 -10 -21 0 -14 14 -78 16 -78 2 0 -5 -4 -10 -10 -10 -5 0
-10 9 -10 20 0 18 -7 20 -59 20 -51 0 -59 -3 -64 -21 -11 -41 -27 -7 -27 56 0
48 -4 64 -16 69 -9 3 -71 6 -139 6 -68 0 -126 4 -129 8 -9 15 9 30 50 41 171
46 232 257 111 381 -83 86 -220 94 -312 18 -45 -38 -74 -93 -84 -166 l-9 -57
-1 50 c-4 125 -106 226 -228 224 -26 0 -63 -6 -81 -12z m796 -596 c9 -1 12
-41 12 -166 l0 -165 -105 0 -105 0 0 -85 0 -85 -195 0 -194 0 -3 83 -3 82
-100 3 c-64 2 -102 7 -107 15 -12 19 -10 301 3 314 8 8 125 10 398 8 212 -2
392 -3 399 -4z"/>
<path d="M2920 4905 l0 -155 393 2 392 3 3 153 3 152 -396 0 -395 0 0 -155z
m170 35 c11 -11 20 -29 20 -40 0 -25 -34 -60 -59 -60 -18 0 -61 43 -61 60 0 4
9 19 21 34 24 31 52 33 79 6z m153 -12 l21 -28 -21 -27 c-11 -16 -29 -29 -41
-31 -25 -4 -62 30 -62 58 0 28 37 62 62 58 12 -2 30 -15 41 -30z m245 -39 c4
-31 -20 -53 -46 -44 -44 13 -30 78 16 73 21 -2 28 -9 30 -29z m90 19 c28 -28
1 -75 -37 -63 -11 3 -23 15 -26 26 -12 38 35 65 63 37z"/>
<path d="M3020 4921 c-25 -47 36 -83 64 -38 8 12 8 22 0 35 -16 25 -51 27 -64
3z"/>
<path d="M3170 4925 c-26 -32 13 -81 48 -59 34 22 22 74 -18 74 -10 0 -23 -7
-30 -15z"/>
<path d="M3130 4660 l0 -80 183 2 182 3 3 78 3 77 -186 0 -185 0 0 -80z m136
32 c17 -11 22 -35 12 -54 -10 -21 -39 -23 -56 -6 -32 32 7 85 44 60z m142 -4
c17 -17 15 -58 -4 -65 -36 -13 -68 33 -44 62 15 18 32 19 48 3z"/>
<path d="M2320 4900 l0 -141 46 33 c25 18 48 36 50 40 3 5 16 8 30 8 23 0 24
3 24 55 0 44 -4 57 -17 61 -25 8 -36 14 -88 52 l-45 33 0 -141z"/>
<path d="M3182 4338 c-32 -32 8 -80 48 -58 34 18 19 70 -20 70 -9 0 -21 -5
-28 -12z"/>
<path d="M17230 4286 c0 -13 -7 -29 -15 -36 -8 -7 -15 -20 -15 -30 0 -12 -10
-20 -32 -24 -25 -4 -44 -21 -77 -63 -48 -63 -56 -84 -66 -175 l-6 -63 48 -52
c45 -49 53 -53 94 -53 72 0 249 67 249 95 0 23 -51 249 -60 266 -6 10 -24 26
-40 36 -17 10 -33 28 -36 40 -4 13 -10 23 -15 23 -5 0 -9 14 -9 30 0 17 -4 30
-10 30 -5 0 -10 -11 -10 -24z"/>
<path d="M2990 4155 c0 -9 7 -31 15 -51 14 -34 14 -35 -13 -46 -74 -29 -113
-37 -131 -26 -14 8 -47 1 -158 -36 -78 -26 -143 -52 -146 -59 -6 -17 17 -79
34 -89 9 -6 62 7 154 39 114 39 141 52 143 69 2 16 20 26 82 46 44 14 82 22
85 17 3 -5 -35 -216 -85 -470 -51 -253 -89 -463 -86 -466 3 -3 22 -1 42 4 l38
9 83 389 c45 215 86 408 90 429 5 22 14 41 21 44 9 3 12 -87 12 -412 l0 -416
28 0 c59 0 56 -17 60 425 3 225 8 405 13 405 5 0 9 -13 9 -30 0 -35 2 -36 35
-14 19 12 28 13 45 4 19 -10 21 -9 17 7 -19 66 -19 85 2 106 24 26 51 88 51
117 0 19 -6 20 -220 20 -191 0 -220 -2 -220 -15z"/>
<path d="M6430 3781 c-52 -28 -82 -89 -88 -179 -5 -84 5 -102 59 -102 26 0 28
2 34 68 9 83 18 100 60 118 18 7 36 22 40 33 6 18 7 18 46 -3 l41 -21 -6 -54
c-7 -61 -18 -85 -55 -118 l-26 -24 29 3 c46 5 68 44 73 130 4 61 1 78 -17 106
-37 59 -122 78 -190 43z"/>
<path d="M3383 3779 c-8 -8 -7 -22 4 -53 8 -22 23 -79 33 -125 10 -46 24 -89
30 -95 9 -8 10 -5 6 14 -3 14 -15 77 -27 140 -23 123 -29 136 -46 119z"/>
<path d="M15066 3724 c-40 -40 -11 -62 84 -66 74 -3 75 -3 78 -31 2 -19 11
-31 28 -37 31 -12 30 -21 -6 -53 -16 -15 -30 -37 -30 -49 l0 -21 25 23 c33 31
65 99 65 137 0 45 -40 88 -94 102 -65 16 -132 14 -150 -5z"/>
<path d="M10067 3721 c-55 -6 -76 -19 -77 -48 0 -21 39 -36 68 -25 31 11 111
11 130 -1 11 -8 13 -5 16 23 1 9 -63 61 -73 59 -3 -1 -32 -5 -64 -8z"/>
<path d="M11626 3684 c-28 -27 -21 -100 15 -156 35 -53 49 -58 79 -26 22 24
26 43 10 53 -16 10 -12 45 5 45 9 0 15 9 15 25 0 15 6 25 15 25 12 0 35 28 35
44 0 3 -36 6 -79 6 -59 0 -84 -4 -95 -16z"/>
<path d="M3669 3592 c-24 -21 -32 -38 -36 -72 -6 -67 43 -151 61 -104 3 9 1
23 -5 30 -16 20 -3 47 21 41 15 -4 19 1 22 27 3 31 3 31 61 31 54 1 76 11 77
37 0 15 -74 38 -121 38 -39 0 -55 -5 -80 -28z"/>
<path d="M11660 3419 c0 -5 -6 -8 -12 -6 -7 1 -12 -4 -10 -11 1 -8 -2 -11 -7
-7 -14 8 -39 -34 -57 -92 -11 -34 -16 -112 -19 -273 -4 -219 -5 -228 -34 -315
-16 -50 -37 -139 -46 -200 -9 -60 -21 -130 -26 -155 -5 -25 -12 -61 -16 -80
-3 -20 -22 -53 -43 -76 -48 -52 -54 -64 -86 -165 -47 -148 -94 -263 -125 -301
-44 -55 -40 -68 52 -165 37 -39 101 -69 120 -57 5 3 -12 34 -36 70 -51 75 -62
106 -47 139 6 13 45 75 86 139 42 63 76 118 76 121 0 3 31 57 69 120 38 63 79
144 92 180 13 36 27 65 30 65 3 0 18 -46 33 -103 25 -92 26 -107 15 -150 -8
-33 -9 -78 -4 -145 11 -134 12 -284 2 -368 l-9 -70 89 -17 c154 -30 253 -17
148 20 -45 16 -124 73 -125 91 0 6 11 103 25 215 14 112 34 351 46 532 11 182
23 375 27 430 9 129 9 336 1 400 -10 71 -39 156 -52 148 -6 -4 -7 -1 -3 6 8
13 -17 46 -46 62 -27 14 -108 28 -108 18z m103 -70 c30 -16 37 -28 37 -70 0
-37 -25 -92 -78 -169 l-31 -45 51 -97 c28 -54 55 -98 60 -98 4 0 11 0 16 0 10
0 40 -92 35 -111 -3 -8 -15 -28 -27 -44 l-23 -29 -27 28 c-16 18 -26 41 -26
60 -1 24 -15 47 -66 101 -100 107 -118 137 -110 185 3 23 11 49 16 58 5 9 27
55 49 102 35 76 79 140 96 140 4 0 16 -5 28 -11z"/>
<path d="M3400 3365 c0 -6 9 -48 20 -95 24 -103 23 -100 5 -100 -21 0 -19 -6
17 -51 38 -47 48 -39 48 43 0 46 -7 70 -36 125 -35 68 -54 96 -54 78z"/>
<path d="M3749 3295 c-15 -14 4 -180 27 -240 28 -76 30 -106 9 -166 -9 -24
-13 -54 -10 -67 l5 -22 31 22 31 23 -5 85 c-4 63 -12 102 -33 150 -22 51 -28
81 -29 139 0 66 -10 93 -26 76z"/>
<path d="M3090 3113 c-53 -9 -53 -12 14 -92 l66 -79 0 -76 c0 -75 -1 -79 -57
-176 l-57 -100 -159 0 -159 0 28 48 c15 26 39 67 54 92 19 32 34 46 52 48 21
3 27 10 33 40 3 20 9 46 12 56 5 16 1 18 -24 13 -27 -5 -34 1 -97 79 -39 48
-76 84 -86 84 -34 0 -81 -13 -78 -21 2 -5 30 -43 63 -85 58 -74 60 -76 98 -72
l39 4 -6 -36 c-3 -19 -6 -41 -6 -47 0 -8 -15 -13 -39 -13 -39 0 -39 0 -92 -95
-53 -93 -55 -95 -91 -95 l-38 0 0 48 c0 32 -7 55 -21 72 -11 14 -36 50 -56 80
-21 30 -64 88 -96 128 -57 71 -60 72 -95 67 -60 -10 -67 -14 -54 -27 22 -22
12 -27 -65 -30 l-78 -3 -3 -167 c-2 -155 -1 -168 16 -177 11 -6 22 -7 26 -4 3
3 6 -185 6 -418 0 -233 3 -454 7 -491 l6 -68 429 0 429 0 17 -30 c17 -31 55
-47 117 -50 59 -4 61 0 15 40 l-45 40 263 0 262 0 0 297 c0 163 3 294 6 291 3
-4 26 -98 50 -210 85 -391 76 -358 101 -358 39 0 44 -41 -59 478 -33 167 -58
305 -56 307 2 2 60 -14 130 -37 l125 -40 11 -63 c10 -61 42 -144 107 -276 39
-79 70 -168 80 -226 4 -24 11 -46 16 -49 6 -3 54 8 108 26 69 22 107 40 126
60 l27 28 -78 -5 c-58 -3 -83 -1 -95 9 -9 7 -35 83 -59 168 -23 85 -62 216
-86 292 -51 157 -50 156 -229 274 -87 58 -103 73 -100 90 5 24 -24 43 -36 23
-11 -18 -82 -2 -75 17 3 8 -1 14 -8 14 -8 0 -59 18 -114 40 -54 22 -101 40
-104 40 -11 0 -30 -110 -27 -153 l4 -47 -122 0 -123 0 47 78 46 77 -2 103 c-2
89 0 102 14 102 11 0 -6 27 -52 85 -37 46 -75 84 -83 83 -8 0 -26 -3 -40 -5z
m-923 -257 c-4 -9 -11 -16 -17 -16 -17 0 -24 31 -9 41 18 11 34 -5 26 -25z
m191 5 c-5 -24 -38 -27 -38 -3 0 10 3 21 6 25 11 11 35 -5 32 -22z m-188 -221
c0 -13 -7 -20 -20 -20 -13 0 -20 7 -20 20 0 13 7 20 20 20 13 0 20 -7 20 -20z
m360 0 c0 -13 -7 -20 -20 -20 -13 0 -20 7 -20 20 0 13 7 20 20 20 13 0 20 -7
20 -20z m840 -272 c0 -5 -54 -8 -120 -8 l-121 0 3 -82 3 -83 105 -6 c58 -3
-133 -5 -425 -5 -299 0 -441 3 -325 6 l205 5 3 83 3 82 -206 0 c-113 0 -205 3
-205 8 0 4 243 7 540 7 297 0 540 -3 540 -7z m-402 -365 c-126 -2 -330 -2
-455 0 -126 1 -23 2 227 2 250 0 353 -1 228 -2z m520 0 c-10 -2 -28 -2 -40 0
-13 2 -5 4 17 4 22 1 32 -1 23 -4z m-450 -178 c3 -3 -164 -5 -371 -5 -207 0
-377 3 -377 8 0 8 740 6 748 -3z m459 2 c3 -4 -52 -6 -123 -5 l-129 2 100 5
c119 7 143 7 152 -2z"/>
<path d="M2710 2275 l0 -85 205 0 205 0 0 85 0 85 -205 0 -205 0 0 -85z"/>
<path d="M15063 3093 c9 -2 17 -9 17 -14 0 -6 5 -7 11 -3 14 8 -8 24 -31 23
-11 -1 -10 -3 3 -6z"/>
<path d="M15246 3037 c3 -10 9 -15 12 -12 3 3 0 11 -7 18 -10 9 -11 8 -5 -6z"/>
<path d="M15186 2991 c-3 -5 1 -11 9 -14 9 -4 12 -1 8 9 -6 16 -10 17 -17 5z"/>
<path d="M15280 2815 c0 -5 5 -17 10 -25 5 -8 10 -10 10 -5 0 6 -5 17 -10 25
-5 8 -10 11 -10 5z"/>
<path d="M14370 2785 c0 -25 1 -25 90 -25 89 0 90 0 90 25 0 25 -1 25 -90 25
-89 0 -90 0 -90 -25z"/>
<path d="M9915 2680 c-11 -5 -32 -9 -46 -9 -25 -1 -27 -5 -38 -78 -37 -252
-71 -588 -86 -855 l-7 -116 -54 -40 c-29 -22 -50 -43 -46 -47 4 -5 1 -5 -5 -1
-7 4 -21 2 -30 -3 -16 -9 -15 -11 7 -12 46 -2 105 3 110 9 3 4 25 9 49 11 65
5 88 36 51 69 -8 8 -10 11 -3 8 13 -7 13 -7 43 117 12 48 33 112 47 143 21 46
24 67 22 137 -3 85 -6 71 96 392 12 40 12 40 21 -60 4 -55 8 -181 7 -280 -1
-112 4 -223 13 -293 8 -62 13 -144 11 -182 -2 -39 -2 -70 1 -70 3 0 14 7 24
17 10 9 18 11 18 5 0 -6 -4 -14 -10 -17 -16 -10 -12 -23 10 -30 12 -4 27 -1
35 5 10 9 19 9 32 0 16 -9 15 -10 -7 -5 -21 5 -22 4 -8 -5 18 -11 58 2 58 19
0 14 -38 43 -41 32 -2 -6 -10 -1 -18 11 -13 21 -13 22 2 9 19 -15 24 -2 6 16
-8 8 -2 92 20 304 40 378 73 780 66 787 -8 8 -110 6 -170 -3 -38 -5 -61 -3
-89 9 -42 18 -61 19 -91 6z m-135 -1075 c9 -10 9 -15 1 -15 -6 0 -11 5 -11 11
0 5 -4 7 -10 4 -5 -3 -10 -1 -10 4 0 16 16 13 30 -4z m-56 -20 c-10 -8 -23
-15 -28 -15 -6 0 -1 7 10 15 10 8 23 15 28 15 6 0 1 -7 -10 -15z m91 5 c3 -5
1 -10 -4 -10 -6 0 -11 5 -11 10 0 6 2 10 4 10 3 0 8 -4 11 -10z m-40 -18 c-3
-3 -11 0 -18 7 -9 10 -8 11 6 5 10 -3 15 -9 12 -12z m-27 -20 c2 -7 -1 -12 -8
-12 -6 0 -8 5 -4 11 4 8 -1 9 -17 4 -19 -5 -21 -4 -9 4 18 12 32 10 38 -7z
m-55 -6 c4 -9 0 -13 -11 -11 -9 2 -21 4 -27 4 -5 1 -3 6 5 11 20 13 27 12 33
-4z m447 -36 c13 -8 13 -10 -2 -10 -9 0 -20 5 -23 10 -8 13 5 13 25 0z"/>
<path d="M16891 2659 c-30 -5 -56 -11 -59 -13 -9 -10 32 -69 61 -86 58 -36
132 -20 176 36 33 42 27 51 -42 63 -35 6 -68 10 -73 10 -5 -1 -33 -5 -63 -10z"/>
<path d="M16656 2529 c-38 -43 -81 -125 -88 -164 -3 -18 2 -20 42 -19 55 0 92
24 116 76 19 42 13 94 -14 129 l-18 22 -38 -44z"/>
<path d="M17237 2523 c-65 -72 -28 -185 68 -212 48 -13 60 -4 51 42 -8 44 -60
149 -84 171 -18 15 -20 15 -35 -1z"/>
<path d="M16565 2163 c4 -21 15 -55 26 -77 10 -22 17 -41 16 -43 -2 -2 -31 22
-65 53 -51 45 -63 53 -68 39 -5 -12 9 -33 45 -69 50 -51 52 -54 29 -59 -13 -4
-33 -7 -46 -7 -15 0 -22 -5 -19 -12 2 -9 27 -13 70 -14 36 0 72 -6 80 -12 28
-24 87 49 87 109 0 64 -65 129 -129 129 -33 0 -33 0 -26 -37z"/>
<path d="M17270 2159 c-67 -27 -100 -98 -78 -165 7 -20 18 -39 24 -41 30 -10
140 153 132 195 -4 20 -42 25 -78 11z"/>
<path d="M16904 1956 c-34 -15 -64 -51 -64 -77 0 -14 13 -19 64 -24 64 -7 151
0 174 14 19 11 -24 70 -63 87 -42 17 -71 17 -111 0z"/>
<path d="M16830 1806 c0 -26 71 -94 105 -102 30 -6 30 -6 -15 38 -81 77 -90
84 -90 64z"/>
<path d="M6241 1611 c-19 -35 -12 -48 38 -79 71 -44 124 -58 159 -43 l27 13
-24 17 c-12 9 -42 32 -65 52 -22 20 -52 38 -66 41 -14 3 -33 9 -42 12 -11 5
-20 1 -27 -13z"/>
<path d="M6684 1593 c-28 -4 -33 -9 -39 -40 -4 -23 -2 -38 5 -43 19 -12 169
-20 194 -10 39 14 39 28 -1 40 -21 7 -57 23 -80 36 -23 13 -43 23 -45 22 -2 0
-17 -3 -34 -5z"/>
<path d="M17818 1333 c6 -2 18 -2 25 0 6 3 1 5 -13 5 -14 0 -19 -2 -12 -5z"/>
<path d="M17928 1303 c7 -3 16 -2 19 1 4 3 -2 6 -13 5 -11 0 -14 -3 -6 -6z"/>
<path d="M18420 1230 c0 -5 5 -10 11 -10 5 0 7 5 4 10 -3 6 -8 10 -11 10 -2 0
-4 -4 -4 -10z"/>
<path d="M17745 1219 c-4 -6 -5 -12 -2 -15 2 -3 7 2 10 11 7 17 1 20 -8 4z"/>
<path d="M17708 1193 c7 -3 16 -2 19 1 4 3 -2 6 -13 5 -11 0 -14 -3 -6 -6z"/>
<path d="M17710 1181 l-35 -7 37 -5 c20 -3 35 -2 32 2 -2 4 2 10 8 12 17 7 2
6 -42 -2z"/>
<path d="M17608 1173 c7 -3 16 -2 19 1 4 3 -2 6 -13 5 -11 0 -14 -3 -6 -6z"/>
<path d="M17550 1160 c20 -13 33 -13 25 0 -3 6 -14 10 -23 10 -15 0 -15 -2 -2
-10z"/>
<path d="M17448 1153 c7 -3 16 -2 19 1 4 3 -2 6 -13 5 -11 0 -14 -3 -6 -6z"/>
<path d="M2038 1143 c7 -3 16 -2 19 1 4 3 -2 6 -13 5 -11 0 -14 -3 -6 -6z"/>
<path d="M17388 1143 c6 -2 18 -2 25 0 6 3 1 5 -13 5 -14 0 -19 -2 -12 -5z"/>
<path d="M2253 1123 c9 -2 25 -2 35 0 9 3 1 5 -18 5 -19 0 -27 -2 -17 -5z"/>
<path d="M17133 1123 c9 -2 23 -2 30 0 6 3 -1 5 -18 5 -16 0 -22 -2 -12 -5z"/>
<path d="M2358 1113 c7 -3 16 -2 19 1 4 3 -2 6 -13 5 -11 0 -14 -3 -6 -6z"/>
<path d="M2428 1113 c7 -3 16 -2 19 1 4 3 -2 6 -13 5 -11 0 -14 -3 -6 -6z"/>
<path d="M16988 1113 c7 -3 16 -2 19 1 4 3 -2 6 -13 5 -11 0 -14 -3 -6 -6z"/>
<path d="M17078 1113 c7 -3 16 -2 19 1 4 3 -2 6 -13 5 -11 0 -14 -3 -6 -6z"/>
<path d="M17768 1113 c7 -3 16 -2 19 1 4 3 -2 6 -13 5 -11 0 -14 -3 -6 -6z"/>
<path d="M2613 1103 c9 -2 23 -2 30 0 6 3 -1 5 -18 5 -16 0 -22 -2 -12 -5z"/>
<path d="M16790 1106 c0 -2 14 -6 30 -8 17 -3 30 -1 30 4 0 4 -13 8 -30 8 -16
0 -30 -2 -30 -4z"/>
<path d="M2758 1093 c6 -2 18 -2 25 0 6 3 1 5 -13 5 -14 0 -19 -2 -12 -5z"/>
<path d="M16728 1093 c7 -3 16 -2 19 1 4 3 -2 6 -13 5 -11 0 -14 -3 -6 -6z"/>
<path d="M2848 1083 c6 -2 18 -2 25 0 6 3 1 5 -13 5 -14 0 -19 -2 -12 -5z"/>
<path d="M2928 1083 c7 -3 16 -2 19 1 4 3 -2 6 -13 5 -11 0 -14 -3 -6 -6z"/>
<path d="M16403 1083 c9 -2 23 -2 30 0 6 3 -1 5 -18 5 -16 0 -22 -2 -12 -5z"/>
<path d="M16488 1083 c12 -2 30 -2 40 0 9 3 -1 5 -23 4 -22 0 -30 -2 -17 -4z"/>
<path d="M2788 1073 c7 -3 16 -2 19 1 4 3 -2 6 -13 5 -11 0 -14 -3 -6 -6z"/>
<path d="M3173 1073 c9 -2 25 -2 35 0 9 3 1 5 -18 5 -19 0 -27 -2 -17 -5z"/>
<path d="M16228 1073 c12 -2 32 -2 45 0 12 2 2 4 -23 4 -25 0 -35 -2 -22 -4z"/>
<path d="M16338 1073 c7 -3 16 -2 19 1 4 3 -2 6 -13 5 -11 0 -14 -3 -6 -6z"/>
<path d="M16568 1073 c7 -3 16 -2 19 1 4 3 -2 6 -13 5 -11 0 -14 -3 -6 -6z"/>
<path d="M15973 1063 c15 -2 37 -2 50 0 12 2 0 4 -28 4 -27 0 -38 -2 -22 -4z"/>
<path d="M16398 1063 c6 -2 18 -2 25 0 6 3 1 5 -13 5 -14 0 -19 -2 -12 -5z"/>
<path d="M15378 1043 c12 -2 32 -2 45 0 12 2 2 4 -23 4 -25 0 -35 -2 -22 -4z"/>
<path d="M15455 1040 c4 -6 11 -8 16 -5 14 9 11 15 -7 15 -8 0 -12 -5 -9 -10z"/>
<path d="M15178 1033 c7 -3 16 -2 19 1 4 3 -2 6 -13 5 -11 0 -14 -3 -6 -6z"/>
<path d="M16008 1033 c7 -3 16 -2 19 1 4 3 -2 6 -13 5 -11 0 -14 -3 -6 -6z"/>
<path d="M14671 1026 c2 -2 20 -6 39 -10 25 -4 31 -3 20 4 -14 9 -69 15 -59 6z"/>
<path d="M14910 1020 c0 -5 5 -10 11 -10 5 0 7 5 4 10 -3 6 -8 10 -11 10 -2 0
-4 -4 -4 -10z"/>
<path d="M15020 1020 c-23 -7 -23 -8 -3 -9 12 -1 25 4 28 9 3 6 5 10 3 9 -2
-1 -14 -5 -28 -9z"/>
<path d="M14848 1003 c6 -2 18 -2 25 0 6 3 1 5 -13 5 -14 0 -19 -2 -12 -5z"/>
<path d="M15648 1003 c6 -2 18 -2 25 0 6 3 1 5 -13 5 -14 0 -19 -2 -12 -5z"/>
</g>
</svg>
